<?xml version="1.0" encoding="UTF-8"?>
<svg width="1189px" height="610px" viewBox="0 0 1189 610" version="1.1" xmlns="http://www.w3.org/2000/svg" xmlns:xlink="http://www.w3.org/1999/xlink">
    <!-- Generator: sketchtool 52.6 (67491) - http://www.bohemiancoding.com/sketch -->
    <title>99FBAFCD-1971-4C12-8E3A-A7FF51902006</title>
    <desc>Created with sketchtool.</desc>
    <defs>
        <polygon id="path-1" points="0.172559226 0.679449801 365.41756 0.679449801 365.41756 365.257787 0.172559226 365.257787"></polygon>
        <polygon id="path-3" points="0.0391812738 0.132967356 77.7912156 0.132967356 77.7912156 106.977828 0.0391812738 106.977828"></polygon>
        <polygon id="path-5" points="0 610.194087 1187.57614 610.194087 1187.57614 0.999178807 0 0.999178807"></polygon>
    </defs>
    <g id="Page-1" stroke="none" stroke-width="1" fill="none" fill-rule="evenodd">
        <g id="max-logo" transform="translate(-457.000000, -192.000000)">
            <g id="Group-29" transform="translate(457.621947, 191.063232)">
                <g id="Group-3" transform="translate(440.909669, 0.319729)">
                    <mask id="mask-2" fill="white">
                        <use xlink:href="#path-1"></use>
                    </mask>
                    <g id="Clip-2"></g>
                    <path d="M246.449989,38.2729303 C234.624417,13.9259298 213.056845,1.40050174 184.534702,0.704644627 C154.616846,0.00878751483 133.745131,13.2260735 121.91956,38.2729303 L16.1732736,260.899216 C4.34370272,285.250216 0.172559226,295.684073 0.172559226,312.384644 C0.172559226,339.515073 22.4319885,365.257787 60.0002742,365.257787 C86.4388453,365.257787 100.355988,356.211645 115.660845,331.164788 L130.965702,306.12193 C141.39956,289.425359 157.400274,272.728787 183.838845,272.728787 C209.57756,272.728787 225.582274,289.425359 236.016131,306.12193 L251.320988,331.164788 C266.625846,356.211645 279.847131,365.257787 306.281703,365.257787 C344.545845,365.257787 365.41756,338.819216 365.41756,311.688787 C365.41756,294.988216 362.63813,285.250216 351.504417,262.29493 L246.449989,38.2729303 Z" id="Fill-1" fill="#021652" mask="url(#mask-2)"></path>
                </g>
                <path d="M336.724457,1.02437363 C312.373457,1.02437363 299.152172,7.98294476 285.938885,23.2878021 L198.276886,124.167087 L109.923028,23.2878021 C96.7017432,7.98294476 83.4844573,1.02437363 59.1374567,1.02437363 C25.0444574,1.02437363 0.00159967152,23.9836592 0.00159967152,67.8146589 L0.00159967152,302.962374 C0.00159967152,346.097516 24.3525994,364.881659 62.6127431,364.881659 C78.6134575,364.881659 91.8347426,361.402373 102.2686,353.751944 C113.398315,343.314088 119.665028,327.313373 119.665028,302.962374 L119.665028,211.825088 L147.491314,246.609945 C160.012743,261.918801 174.625742,273.744373 198.276886,273.744373 C217.756886,273.744373 231.670029,266.089945 247.670743,245.914088 L276.196886,211.825088 L276.196886,302.962374 C276.196886,327.313373 282.4596,343.314088 293.589314,353.751944 C304.023172,361.402373 317.244457,364.881659 333.245171,364.881659 C371.509314,364.881659 395.860314,346.097516 395.860314,302.962374 L395.860314,67.8146589 C395.860314,23.9836592 370.813457,1.02437363 336.724457,1.02437363" id="Fill-4" fill="#021652"></path>
                <path d="M1100.67319,184.73865 L1168.7912,108.166373 C1182.01249,92.8575166 1187.57534,78.2485164 1187.57534,60.1602307 C1187.57534,30.2463732 1158.35734,1.02437363 1124.9642,1.02437363 C1107.57177,1.02437363 1090.8752,9.37465898 1074.87448,27.4629447 L1016.66244,94.0492719 L958.690342,26.7670876 C943.385485,8.67880187 925.2932,1.02437363 907.900771,1.02437363 C873.811771,1.02437363 845.289628,28.854659 845.289628,59.4643735 C845.289628,77.5526593 850.852486,92.1656586 864.073771,107.470516 L932.039815,184.262747 L865.465485,258.439516 C852.2442,273.744373 847.3732,288.353373 847.3732,305.745802 C847.3732,334.963802 873.119913,365.577516 909.292486,365.577516 C927.380771,365.577516 944.081342,358.618945 960.082056,339.834802 L1016.40649,274.844147 L1072.78291,339.834802 C1088.09177,357.927087 1105.4842,365.577516 1122.18077,365.577516 C1159.74506,365.577516 1184.79191,334.963802 1184.79191,306.441659 C1184.79191,289.049231 1179.92491,274.44023 1166.70763,259.135373 L1100.67319,184.73865 Z" id="Fill-6" fill="#021652"></path>
                <polygon id="Fill-8" fill="#021652" points="61.6561395 516.787667 18.8329328 516.787667 19.8407259 503.350426 91.3820356 503.350426 90.542208 515.611908 77.7768293 516.787667 77.7768293 588.356971 61.6561395 588.356971"></polygon>
                <path d="M157.726012,534.59641 C157.726012,519.143583 151.511289,516.452136 131.527392,516.452136 C124.47684,516.452136 118.094151,516.28417 110.199772,516.956032 L111.207565,503.18286 C119.60584,502.510998 126.656392,502.510998 134.382806,502.510998 C162.764978,502.510998 173.846702,509.061653 173.846702,531.740996 L173.846702,588.353371 L157.726012,588.353371 L157.726012,534.59641 Z" id="Fill-10" fill="#021652"></path>
                <path d="M257.994623,588.354971 L224.40952,542.156457 C217.690899,545.683733 215.675313,554.925835 214.835486,565.507662 L213.323796,588.354971 L197.203106,588.354971 L198.882761,564.163938 C200.05852,548.203216 205.261452,537.113493 217.354968,532.750389 L196.027348,503.348426 L214.331589,503.348426 L244.897313,546.019664 C254.131417,542.828319 255.811072,535.269871 256.482934,522.164563 L257.658692,503.348426 L273.779382,503.348426 L272.603623,522.164563 C271.259899,544.340009 264.041382,552.406353 251.611934,555.261766 L275.459037,588.354971 L257.994623,588.354971 Z" id="Fill-12" fill="#021652"></path>
                <g id="Group-16" transform="translate(297.939232, 503.216259)">
                    <mask id="mask-4" fill="white">
                        <use xlink:href="#path-3"></use>
                    </mask>
                    <g id="Clip-15"></g>
                    <path d="M1.71883637,38.6050675 L17.8395261,37.5972744 L17.8395261,106.979028 L1.71883637,106.979028 L1.71883637,38.6050675 Z M60.6627328,14.0741047 L0.0391812738,14.0741047 L1.04697433,0.132967356 L77.7912156,0.132967356 L76.7874218,14.0741047 L55.1238702,85.1395121 L38.9991812,85.3074776 L60.6627328,14.0741047 Z" id="Fill-14" fill="#021652" mask="url(#mask-4)"></path>
                </g>
                <polygon id="Fill-17" fill="#021652" points="435.372201 503.348826 451.156959 503.348826 451.156959 552.070822 435.372201 553.078615"></polygon>
                <path d="M479.206799,528.378886 L475.847489,503.348026 L491.464283,503.348026 L493.479869,518.804852 C498.854765,509.734715 509.268627,502.004302 524.88542,502.004302 C547.72473,502.004302 556.790868,517.461128 556.790868,540.644368 C556.790868,552.573918 556.286972,571.889952 554.107419,588.354571 L511.452178,588.354571 L512.288007,575.085296 L539.326455,575.085296 C539.998317,564.667435 540.670179,553.917642 540.670179,543.331816 C540.670179,525.523473 537.310868,515.277577 522.197972,515.277577 C509.268627,515.277577 503.053903,521.660266 495.327489,532.246092 L492.136145,588.354571 L476.015455,588.354571 L479.206799,528.378886 Z" id="Fill-19" fill="#021652"></path>
                <mask id="mask-6" fill="white">
                    <use xlink:href="#path-5"></use>
                </mask>
                <g id="Clip-22"></g>
                <polygon id="Fill-21" fill="#021652" mask="url(#mask-6)" points="585.019872 588.354571 600.804631 588.354571 600.804631 503.348026 585.019872 503.348026"></polygon>
                <path d="M687.804766,588.354971 L654.219662,542.156457 C647.501042,545.683733 645.485456,554.925835 644.645628,565.507662 L643.133939,588.354971 L627.013249,588.354971 L628.692904,564.163938 C629.868663,548.203216 635.071594,537.113493 647.165111,532.750389 L625.83749,503.348426 L644.141732,503.348426 L674.707455,546.019664 C683.941559,542.828319 685.621214,535.269871 686.293076,522.164563 L687.468835,503.348426 L703.589525,503.348426 L702.413766,522.164563 C701.070042,544.340009 693.851524,552.406353 681.422077,555.261766 L705.26918,588.354971 L687.804766,588.354971 Z" id="Fill-23" fill="#021652" mask="url(#mask-6)"></path>
                <polygon id="Fill-24" fill="#021652" mask="url(#mask-6)" points="770.444197 517.291163 722.74999 517.291163 722.74999 482.350338 738.034852 481.342545 738.034852 503.350026 787.57268 503.350026 786.564886 517.291163 757.346886 588.356571 741.222197 588.524536"></polygon>
                <path d="M933.355944,533.420651 L933.355944,588.353371 L917.235255,588.353371 L917.235255,536.779961 C917.235255,518.807652 914.211875,515.948239 886.165634,515.948239 L876.091703,515.948239 L876.091703,563.662441 C876.091703,583.990267 868.197324,589.193199 852.580531,589.193199 C849.725117,589.193199 846.869703,589.025233 843.846324,588.353371 L844.686152,574.91613 C847.877497,575.084096 848.717324,575.252062 850.900876,575.252062 C857.955427,575.252062 859.967014,573.740372 859.967014,565.674028 L859.967014,516.28417 C854.09222,516.452136 848.717324,516.788067 843.174462,517.123998 L844.182255,503.346827 C857.1156,502.510998 869.876979,501.839136 888.517152,501.839136 C923.445979,501.839136 933.355944,508.893688 933.355944,533.420651" id="Fill-25" fill="#021652" mask="url(#mask-6)"></path>
                <polygon id="Fill-26" fill="#021652" mask="url(#mask-6)" points="957.890106 503.348826 973.674865 503.348826 973.674865 552.070822 957.890106 553.078615"></polygon>
                <path d="M997.194436,574.91613 L1042.20119,574.91613 L1042.20119,535.772168 C1042.20119,519.311548 1036.15444,516.452136 1017.68223,516.452136 C1009.61988,516.452136 1002.40137,516.620101 996.018677,516.956032 L997.02647,503.18286 C1004.08102,502.846929 1011.80344,502.510998 1020.53764,502.510998 C1047.24016,502.510998 1058.32188,509.229619 1058.32188,532.412858 L1058.32188,574.91613 L1072.09506,576.091889 L1071.25523,588.353371 L996.354608,588.353371 L997.194436,574.91613 Z" id="Fill-27" fill="#021652" mask="url(#mask-6)"></path>
                <path d="M1091.25312,528.378886 L1087.89381,503.348026 L1103.5106,503.348026 L1105.52619,518.804852 C1110.90109,509.734715 1121.31495,502.004302 1136.93174,502.004302 C1159.77105,502.004302 1168.83719,517.461128 1168.83719,540.644368 C1168.83719,552.573918 1168.33329,571.889952 1166.15374,588.354571 L1123.4985,588.354571 L1124.33433,575.085296 L1151.37278,575.085296 C1152.04464,564.667435 1152.7165,553.917642 1152.7165,543.331816 C1152.7165,525.523473 1149.35719,515.277577 1134.24429,515.277577 C1121.31495,515.277577 1115.10022,521.660266 1107.37381,532.246092 L1104.18247,588.354571 L1088.06178,588.354571 L1091.25312,528.378886 Z" id="Fill-28" fill="#021652" mask="url(#mask-6)"></path>
            </g>
        </g>
    </g>
</svg>